<svg xmlns="http://www.w3.org/2000/svg" viewBox="0 0 48 48" role="img" aria-label="agent6">
  <defs><linearGradient id="g" x1="6" y1="4" x2="42" y2="44" gradientUnits="userSpaceOnUse"><stop offset="0" stop-color="#7aa2f7"/><stop offset="1" stop-color="#06f5f3"/></linearGradient></defs>
  <path d="M24 3.5 41.7 13.75 V34.25 L24 44.5 6.3 34.25 V13.75 Z" stroke="url(#g)" stroke-width="2.4" stroke-linejoin="round" fill="none"/>
  <g stroke="url(#g)" stroke-width="2.0" stroke-linecap="round" stroke-linejoin="round" fill="none">
    <line x1="24.00" y1="24.00" x2="24.00" y2="8.50"/>
    <line x1="24.00" y1="15.94" x2="19.59" y2="13.18"/>
    <line x1="24.00" y1="15.94" x2="28.41" y2="13.18"/>
    <line x1="24.00" y1="11.60" x2="20.95" y2="9.69"/>
    <line x1="24.00" y1="11.60" x2="27.05" y2="9.69"/>
    <line x1="24.00" y1="24.00" x2="10.58" y2="16.25"/>
    <line x1="17.02" y1="19.97" x2="12.43" y2="22.41"/>
    <line x1="17.02" y1="19.97" x2="16.84" y2="14.77"/>
    <line x1="13.26" y1="17.80" x2="10.08" y2="19.49"/>
    <line x1="13.26" y1="17.80" x2="13.14" y2="14.20"/>
    <line x1="24.00" y1="24.00" x2="10.58" y2="31.75"/>
    <line x1="17.02" y1="28.03" x2="16.84" y2="33.23"/>
    <line x1="17.02" y1="28.03" x2="12.43" y2="25.59"/>
    <line x1="13.26" y1="30.20" x2="13.14" y2="33.80"/>
    <line x1="13.26" y1="30.20" x2="10.08" y2="28.51"/>
    <line x1="24.00" y1="24.00" x2="24.00" y2="39.50"/>
    <line x1="24.00" y1="32.06" x2="28.41" y2="34.82"/>
    <line x1="24.00" y1="32.06" x2="19.59" y2="34.82"/>
    <line x1="24.00" y1="36.40" x2="27.05" y2="38.31"/>
    <line x1="24.00" y1="36.40" x2="20.95" y2="38.31"/>
    <line x1="24.00" y1="24.00" x2="37.42" y2="31.75"/>
    <line x1="30.98" y1="28.03" x2="35.57" y2="25.59"/>
    <line x1="30.98" y1="28.03" x2="31.16" y2="33.23"/>
    <line x1="34.74" y1="30.20" x2="37.92" y2="28.51"/>
    <line x1="34.74" y1="30.20" x2="34.86" y2="33.80"/>
    <line x1="24.00" y1="24.00" x2="37.42" y2="16.25"/>
    <line x1="30.98" y1="19.97" x2="31.16" y2="14.77"/>
    <line x1="30.98" y1="19.97" x2="35.57" y2="22.41"/>
    <line x1="34.74" y1="17.80" x2="34.86" y2="14.20"/>
    <line x1="34.74" y1="17.80" x2="37.92" y2="19.49"/>
  </g>
</svg>
